<svg width="28" height="28" viewBox="0 0 28 28" fill="none" xmlns="http://www.w3.org/2000/svg">
<path d="M15.3994 0.00171802C16.4183 -0.00219198 17.4373 0.00804878 18.4559 0.0324371L18.7268 0.0422113C19.0396 0.0533819 19.3482 0.067345 19.721 0.0841008C21.2067 0.153917 22.2204 0.388499 23.1099 0.733389C24.0314 1.08805 24.8078 1.56839 25.5842 2.34474C26.294 3.04235 26.8434 3.8862 27.1941 4.81762C27.539 5.70708 27.7736 6.7222 27.8434 8.20788C27.8602 8.5793 27.8741 8.88929 27.8853 9.20206L27.8937 9.47295C27.9185 10.4911 27.9292 11.5096 27.9258 12.5281L27.9272 13.5697V15.3989C27.9306 16.4179 27.9199 17.4368 27.8951 18.4555L27.8867 18.7263C27.8755 19.0391 27.8615 19.3477 27.8448 19.7205C27.775 21.2062 27.5376 22.2199 27.1941 23.1094C26.8445 24.0418 26.295 24.8863 25.5842 25.5837C24.8859 26.2934 24.0417 26.8428 23.1099 27.1936C22.2204 27.5385 21.2067 27.7731 19.721 27.8429C19.3482 27.8597 19.0396 27.8736 18.7268 27.8848L18.4559 27.8932C17.4373 27.918 16.4184 27.9287 15.3994 27.9253L14.3578 27.9267H12.53C11.511 27.9301 10.4921 27.9194 9.47343 27.8946L9.20254 27.8862C8.87107 27.8742 8.53967 27.8602 8.20837 27.8443C6.72268 27.7745 5.70896 27.5371 4.8181 27.1936C3.88632 26.8436 3.04232 26.2941 2.34522 25.5837C1.63456 24.8859 1.08466 24.0415 0.733873 23.1094C0.388982 22.2199 0.154401 21.2062 0.0845847 19.7205C0.0690338 19.3892 0.0550705 19.0578 0.0426952 18.7263L0.0357138 18.4555C0.00997066 17.4368 -0.00166657 16.4179 0.000805677 15.3989V12.5281C-0.0030914 11.5096 0.00714936 10.4911 0.0315248 9.47295L0.041299 9.20206C0.0524695 8.88929 0.0664327 8.5793 0.0831885 8.20788C0.153004 6.7208 0.387586 5.70847 0.732476 4.81762C1.08347 3.88575 1.63445 3.04212 2.34662 2.34614C3.04324 1.63506 3.88671 1.08466 4.8181 0.733389C5.70896 0.388499 6.72129 0.153917 8.20837 0.0841008L9.20254 0.0422113L9.47343 0.0352299C10.4916 0.00949968 11.5101 -0.00213755 12.5286 0.000321807L15.3994 0.00171802ZM13.964 6.98331C13.0389 6.97023 12.1205 7.14113 11.2621 7.48608C10.4037 7.83103 9.62234 8.34315 8.96356 8.99269C8.30477 9.64222 7.78165 10.4162 7.42459 11.2697C7.06754 12.1231 6.88367 13.0391 6.88367 13.9642C6.88367 14.8893 7.06754 15.8053 7.42459 16.6587C7.78165 17.5122 8.30477 18.2862 8.96356 18.9357C9.62234 19.5853 10.4037 20.0974 11.2621 20.4423C12.1205 20.7873 13.0389 20.9582 13.964 20.9451C15.8156 20.9451 17.5914 20.2095 18.9007 18.9002C20.21 17.5909 20.9456 15.8151 20.9456 13.9635C20.9456 12.1119 20.21 10.3361 18.9007 9.02678C17.5914 7.71747 15.8156 6.98331 13.964 6.98331ZM13.964 9.77595C14.5204 9.76569 15.0733 9.86642 15.5904 10.0723C16.1075 10.2781 16.5784 10.5849 16.9755 10.9747C17.3727 11.3646 17.6882 11.8297 17.9036 12.3429C18.119 12.856 18.23 13.407 18.2301 13.9635C18.2302 14.52 18.1194 15.071 17.9042 15.5842C17.6889 16.0975 17.3736 16.5627 16.9765 16.9527C16.5795 17.3426 16.1087 17.6496 15.5917 17.8556C15.0747 18.0616 14.5218 18.1625 13.9654 18.1525C12.8544 18.1525 11.7889 17.7111 11.0033 16.9255C10.2178 16.14 9.77643 15.0745 9.77643 13.9635C9.77643 12.8525 10.2178 11.787 11.0033 11.0015C11.7889 10.2159 12.8544 9.77455 13.9654 9.77455L13.964 9.77595ZM21.2947 4.88883C20.8442 4.90686 20.4182 5.09849 20.1058 5.42358C19.7935 5.74867 19.6191 6.18201 19.6191 6.63283C19.6191 7.08366 19.7935 7.51699 20.1058 7.84209C20.4182 8.16718 20.8442 8.35881 21.2947 8.37684C21.7576 8.37684 22.2015 8.19295 22.5288 7.86562C22.8562 7.53829 23.0401 7.09435 23.0401 6.63144C23.0401 6.16853 22.8562 5.72458 22.5288 5.39726C22.2015 5.06993 21.7576 4.88604 21.2947 4.88604V4.88883Z" fill="#000000"/>
</svg>
