<svg width="29" height="28" viewBox="0 0 29 28" fill="none" xmlns="http://www.w3.org/2000/svg">
<path d="M4.8121 23.3823H9.01218V10.7638H4.8121V23.3823ZM9.28491 6.87286C9.27279 6.24254 9.05461 5.72132 8.63036 5.30919C8.20611 4.89706 7.64246 4.691 6.93942 4.691C6.23637 4.691 5.66363 4.89706 5.2212 5.30919C4.77877 5.72132 4.55755 6.24254 4.55755 6.87286C4.55755 7.49105 4.77271 8.00924 5.20302 8.42743C5.63333 8.84562 6.19395 9.05472 6.88487 9.05472H6.90305C7.61822 9.05472 8.19398 8.84562 8.63036 8.42743C9.06673 8.00924 9.28491 7.49105 9.28491 6.87286ZM19.9215 23.3823H24.1216V16.1458C24.1216 14.2791 23.6791 12.8669 22.7943 11.9093C21.9094 10.9517 20.7397 10.4729 19.2851 10.4729C17.6366 10.4729 16.3699 11.182 15.485 12.6002H15.5214V10.7638H11.3213C11.3577 11.5639 11.3577 15.77 11.3213 23.3823H15.5214V16.3276C15.5214 15.867 15.5638 15.5276 15.6487 15.3094C15.8305 14.8851 16.1032 14.5245 16.4669 14.2275C16.8305 13.9306 17.279 13.7821 17.8123 13.7821C19.2184 13.7821 19.9215 14.7336 19.9215 16.6367V23.3823ZM28.4307 5.23646V22.6913C28.4307 24.1338 27.9186 25.3671 26.8943 26.3914C25.8701 27.4157 24.6367 27.9278 23.1943 27.9278H5.73939C4.29694 27.9278 3.06358 27.4157 2.03932 26.3914C1.01506 25.3671 0.50293 24.1338 0.50293 22.6913V5.23646C0.50293 3.79401 1.01506 2.56065 2.03932 1.53639C3.06358 0.512131 4.29694 0 5.73939 0H23.1943C24.6367 0 25.8701 0.512131 26.8943 1.53639C27.9186 2.56065 28.4307 3.79401 28.4307 5.23646Z" fill="#000000"/>
</svg>
